<svg fill="none" height="685" viewBox="0 0 685 685" width="685" xmlns="http://www.w3.org/2000/svg" xmlns:xlink="http://www.w3.org/1999/xlink"><linearGradient id="a" gradientUnits="userSpaceOnUse" x1="685" x2="0" y1="0" y2="685"><stop offset="0" stop-color="#dca6fe"/><stop offset=".484375" stop-color="#fdf2ff"/><stop offset="1" stop-color="#6fc3fe"/></linearGradient><clipPath id="b"><path d="m0 0h685v685h-685z"/></clipPath><g clip-path="url(#b)"><path d="m0 0h685v685h-685z" fill="url(#a)"/><path d="m315.912 596.281c17.166 6.63 36.012 6.63 53.179.022 134.425-51.788 292.692-178.712 273.285-331.9-21.239-167.7549-194.649-212.1633-299.884-99.527-105.242-112.6363-278.6501-68.2337-299.8846 99.527-19.2976 153.182 138.9056 280.007 273.3076 331.877z" fill="#ffcf00"/><g fill="#ffa500"><circle cx="180.614" cy="245.572" r="49.8622"/><circle cx="163.993" cy="343.302" r="33.2415"/><circle cx="274.687" cy="479.924" r="44.2111"/><circle cx="322.555" cy="305.075" r="64.156"/><circle cx="462.834" cy="415.436" r="54.1836"/><circle cx="552.918" cy="274.825" r="33.9063"/><circle cx="483.111" cy="181.749" r="33.9063"/></g></g></svg>